<svg width="51" height="43" viewBox="0 0 51 43" fill="none" xmlns="http://www.w3.org/2000/svg">
<path d="M0.5 15.8555H7.87624C10.6377 15.8555 12.8762 18.094 12.8762 20.8555V42.5006H5.5C2.73857 42.5006 0.5 40.2621 0.5 37.5006V15.8555Z" fill="#F4F4F4"/>
<path d="M0.5 5.5C0.5 2.73858 2.73858 0.5 5.5 0.5H12.8762V11.7903H0.5V5.5Z" fill="#4F82E5"/>
<path fill-rule="evenodd" clip-rule="evenodd" d="M22.8268 0.5C20.0654 0.5 17.8268 2.73858 17.8268 5.5V42.5H25.203C27.9644 42.5 30.203 40.2614 30.203 37.5V11.791H50.708V5.50069C50.708 2.73927 48.4695 0.500693 45.708 0.500693H26.5001C26.2813 0.500693 26.0657 0.514755 25.8543 0.542025C25.6411 0.5143 25.4237 0.5 25.203 0.5H22.8268Z" fill="#FFF4F0"/>
</svg>
