<svg width="51" height="42" viewBox="0 0 51 42" fill="none" xmlns="http://www.w3.org/2000/svg">
<path d="M0 15.3555H7.37624C10.1377 15.3555 12.3762 17.594 12.3762 20.3555V42.0006H5C2.23857 42.0006 0 39.7621 0 37.0006V15.3555Z" fill="#202A44"/>
<path d="M0 5C0 2.23858 2.23858 0 5 0H12.3762V11.2903H0V5Z" fill="#4F82E5"/>
<path fill-rule="evenodd" clip-rule="evenodd" d="M22.3267 0C19.5652 0 17.3267 2.23858 17.3267 5V42H24.7029C27.4643 42 29.7029 39.7614 29.7029 37V11.291H50.2079V5.00069C50.2079 2.23927 47.9693 0.000693321 45.2079 0.000693321H26C25.7811 0.000693321 25.5656 0.0147552 25.3541 0.0420247C25.141 0.0143002 24.9236 0 24.7029 0H22.3267Z" fill="#202A44"/>
</svg>
